# xmcd CD database file
#
# Track frame offsets:
#	150
#	36900
#	63720
#	89632
#	122182
#	155332
#	197078
#
# Disc length: 3120 seconds
#
# Revision: 0
# Processed by: cddbd v1.5.2PL0 Copyright (c) Steve Scherf et al.
# Submitted via: CDex 1.51
#
DISCID=630c2e07
DTITLE=Slow Dancing Society - Under the Sodium Lights
DYEAR=2010
DGENRE=New Age
TTITLE0=The Songs In Your Eyes
TTITLE1=Under The Sodium Lights
TTITLE2=Laura's Dream
TTITLE3=A Year Of Yesterdays
TTITLE4=And To The Dust We Shall Return
TTITLE5=By Your Side
TTITLE6=Love Is On The Way
EXTD=YEAR: 2010
EXTT0=
EXTT1=
EXTT2=
EXTT3=
EXTT4=
EXTT5=
EXTT6=
PLAYORDER=
